<svg width="18" height="18" viewBox="0 0 18 18" fill="none" xmlns="http://www.w3.org/2000/svg">
<path d="M11.4943 2.01318L14.3671 3.6718C16.7489 5.04694 17.0175 9.04072 14.9671 12.5922C12.9167 16.1436 9.32365 17.9078 6.94183 16.5327L4.06903 14.8741" stroke="#8990A5" stroke-width="1.2" stroke-linecap="round"/>
<path opacity="0.5" d="M16.2603 7.1229L13.5305 5.54688" stroke="#8990A5" stroke-width="1.2" stroke-linecap="round"/>
<path opacity="0.5" d="M14.1969 13.3912L11.4066 11.7803" stroke="#8990A5" stroke-width="1.2" stroke-linecap="round"/>
<path opacity="0.5" d="M15.9966 9.45758L13.5599 8.05078" stroke="#8990A5" stroke-width="1.2" stroke-linecap="round"/>
<path opacity="0.5" d="M12.7666 15.0518L10.33 13.645" stroke="#8990A5" stroke-width="1.2" stroke-linecap="round"/>
<path opacity="0.5" d="M15.2735 11.5265L12.4833 9.91553" stroke="#8990A5" stroke-width="1.2" stroke-linecap="round"/>
<path opacity="0.5" d="M10.877 16.4471L8.14722 14.8711" stroke="#8990A5" stroke-width="1.2" stroke-linecap="round"/>
<path d="M11.9573 10.8558C10.8995 12.6879 9.45637 14.0351 8.00586 14.7474C6.55116 15.4616 5.15685 15.5123 4.09481 14.8992C3.03278 14.286 2.37953 13.0532 2.27077 11.4362C2.16231 9.82391 2.60749 7.9005 3.66528 6.06835C4.72307 4.2362 6.16621 2.88896 7.61672 2.17674C9.07143 1.46246 10.4657 1.41176 11.5278 2.02493C12.5898 2.63809 13.2431 3.87095 13.3518 5.48789C13.4603 7.10019 13.0151 9.0236 11.9573 10.8558Z" stroke="#8990A5" stroke-width="1.2" stroke-linecap="round"/>
<path opacity="0.5" d="M10.0872 9.77448C9.38898 10.9839 8.4764 11.8833 7.59368 12.3737C6.69872 12.8709 5.93783 12.9017 5.42046 12.6029C4.90308 12.3042 4.54925 11.6299 4.53238 10.6063C4.51573 9.5966 4.83836 8.35657 5.5366 7.14718C6.23484 5.93779 7.14742 5.03836 8.03014 4.54795C8.9251 4.05073 9.68599 4.02 10.2034 4.31871C10.7207 4.61741 11.0746 5.29173 11.0914 6.3154C11.1081 7.32506 10.7855 8.56509 10.0872 9.77448Z" stroke="#8990A5" stroke-width="1.2" stroke-linecap="round"/>
</svg>